<mxfile host="app.diagrams.net" modified="2022-10-28T16:27:43.677Z" agent="5.0 (Windows NT 10.0; Win64; x64) AppleWebKit/537.36 (KHTML, like Gecko) Chrome/106.0.0.0 Safari/537.36" etag="ufLvXqSQGo4oPcjAx8XG" version="20.5.1" type="github">
  <diagram id="849nflGfxSTHiXKI6onO" name="Страница 1">
    <mxGraphModel dx="948" dy="529" grid="0" gridSize="10" guides="1" tooltips="1" connect="1" arrows="1" fold="1" page="0" pageScale="1" pageWidth="827" pageHeight="1169" math="0" shadow="0">
      <root>
        <mxCell id="0" />
        <mxCell id="1" parent="0" />
        <mxCell id="LijQFuNl5dc40pKVmMnD-1" value="1" style="ellipse;whiteSpace=wrap;html=1;aspect=fixed;fontSize=22;fontFamily=Times New Roman;fillColor=#dae8fc;strokeColor=#36393D;verticalAlign=middle;" vertex="1" parent="1">
          <mxGeometry x="760" y="500" width="80" height="80" as="geometry" />
        </mxCell>
        <mxCell id="LijQFuNl5dc40pKVmMnD-2" value="2" style="ellipse;whiteSpace=wrap;html=1;aspect=fixed;fontSize=22;fontFamily=Times New Roman;fillColor=#dae8fc;strokeColor=#36393D;verticalAlign=middle;" vertex="1" parent="1">
          <mxGeometry x="560" y="500" width="80" height="80" as="geometry" />
        </mxCell>
        <mxCell id="LijQFuNl5dc40pKVmMnD-3" value="3" style="ellipse;whiteSpace=wrap;html=1;aspect=fixed;fontSize=22;fontFamily=Times New Roman;fillColor=#dae8fc;strokeColor=#36393D;" vertex="1" parent="1">
          <mxGeometry x="720" y="330" width="80" height="80" as="geometry" />
        </mxCell>
        <mxCell id="LijQFuNl5dc40pKVmMnD-6" value="10" style="endArrow=classic;html=1;rounded=0;entryX=1;entryY=1;entryDx=0;entryDy=0;fontSize=22;fontFamily=Times New Roman;fillColor=#dae8fc;strokeColor=#36393D;verticalAlign=middle;" edge="1" parent="1" source="LijQFuNl5dc40pKVmMnD-1" target="LijQFuNl5dc40pKVmMnD-3">
          <mxGeometry width="50" height="50" relative="1" as="geometry">
            <mxPoint x="290" y="470" as="sourcePoint" />
            <mxPoint x="340" y="420" as="targetPoint" />
          </mxGeometry>
        </mxCell>
        <mxCell id="LijQFuNl5dc40pKVmMnD-7" value="12" style="endArrow=classic;html=1;rounded=0;exitX=0;exitY=0.5;exitDx=0;exitDy=0;entryX=1;entryY=0.5;entryDx=0;entryDy=0;fontSize=22;fontFamily=Times New Roman;fillColor=#dae8fc;strokeColor=#36393D;verticalAlign=middle;" edge="1" parent="1" source="LijQFuNl5dc40pKVmMnD-1" target="LijQFuNl5dc40pKVmMnD-2">
          <mxGeometry width="50" height="50" relative="1" as="geometry">
            <mxPoint x="510" y="580" as="sourcePoint" />
            <mxPoint x="504" y="560" as="targetPoint" />
          </mxGeometry>
        </mxCell>
        <mxCell id="LijQFuNl5dc40pKVmMnD-8" value="6" style="ellipse;whiteSpace=wrap;html=1;aspect=fixed;fontSize=22;fontFamily=Times New Roman;fillColor=#dae8fc;strokeColor=#36393D;verticalAlign=middle;" vertex="1" parent="1">
          <mxGeometry x="620" y="640" width="80" height="80" as="geometry" />
        </mxCell>
        <mxCell id="LijQFuNl5dc40pKVmMnD-9" value="36" style="endArrow=classic;html=1;rounded=0;exitX=1;exitY=1;exitDx=0;exitDy=0;fontSize=22;fontFamily=Times New Roman;fillColor=#dae8fc;strokeColor=#36393D;verticalAlign=middle;" edge="1" parent="1" source="LijQFuNl5dc40pKVmMnD-2" target="LijQFuNl5dc40pKVmMnD-8">
          <mxGeometry width="50" height="50" relative="1" as="geometry">
            <mxPoint x="370" y="590" as="sourcePoint" />
            <mxPoint x="420" y="540" as="targetPoint" />
          </mxGeometry>
        </mxCell>
        <mxCell id="LijQFuNl5dc40pKVmMnD-10" value="4" style="ellipse;whiteSpace=wrap;html=1;aspect=fixed;fontSize=22;fontFamily=Times New Roman;fillColor=#dae8fc;strokeColor=#36393D;" vertex="1" parent="1">
          <mxGeometry x="450" y="360" width="80" height="80" as="geometry" />
        </mxCell>
        <mxCell id="LijQFuNl5dc40pKVmMnD-11" value="16" style="endArrow=classic;html=1;rounded=0;entryX=1;entryY=1;entryDx=0;entryDy=0;exitX=0;exitY=0;exitDx=0;exitDy=0;fontSize=22;fontFamily=Times New Roman;fillColor=#dae8fc;strokeColor=#36393D;verticalAlign=middle;" edge="1" parent="1" source="LijQFuNl5dc40pKVmMnD-2" target="LijQFuNl5dc40pKVmMnD-10">
          <mxGeometry width="50" height="50" relative="1" as="geometry">
            <mxPoint x="370" y="500" as="sourcePoint" />
            <mxPoint x="420" y="450" as="targetPoint" />
          </mxGeometry>
        </mxCell>
        <mxCell id="LijQFuNl5dc40pKVmMnD-12" value="21" style="endArrow=classic;html=1;rounded=0;exitX=0;exitY=0.5;exitDx=0;exitDy=0;entryX=1;entryY=0;entryDx=0;entryDy=0;fontSize=22;fontFamily=Times New Roman;fillColor=#dae8fc;strokeColor=#36393D;verticalAlign=middle;" edge="1" parent="1" source="LijQFuNl5dc40pKVmMnD-3" target="LijQFuNl5dc40pKVmMnD-10">
          <mxGeometry width="50" height="50" relative="1" as="geometry">
            <mxPoint x="270" y="350" as="sourcePoint" />
            <mxPoint x="320" y="300" as="targetPoint" />
          </mxGeometry>
        </mxCell>
        <mxCell id="LijQFuNl5dc40pKVmMnD-13" value="5" style="ellipse;whiteSpace=wrap;html=1;aspect=fixed;fontSize=22;fontFamily=Times New Roman;fillColor=#dae8fc;strokeColor=#36393D;" vertex="1" parent="1">
          <mxGeometry x="240" y="430" width="80" height="80" as="geometry" />
        </mxCell>
        <mxCell id="LijQFuNl5dc40pKVmMnD-14" value="21" style="endArrow=classic;html=1;rounded=0;entryX=1;entryY=0.5;entryDx=0;entryDy=0;exitX=0;exitY=0.5;exitDx=0;exitDy=0;fontSize=22;fontFamily=Times New Roman;fillColor=#dae8fc;strokeColor=#36393D;verticalAlign=middle;" edge="1" parent="1" source="LijQFuNl5dc40pKVmMnD-2" target="LijQFuNl5dc40pKVmMnD-13">
          <mxGeometry width="50" height="50" relative="1" as="geometry">
            <mxPoint x="430" y="640" as="sourcePoint" />
            <mxPoint x="660" y="600" as="targetPoint" />
          </mxGeometry>
        </mxCell>
        <mxCell id="LijQFuNl5dc40pKVmMnD-15" value="15" style="endArrow=classic;html=1;rounded=0;exitX=0;exitY=0.5;exitDx=0;exitDy=0;entryX=0.5;entryY=0;entryDx=0;entryDy=0;fontSize=22;fontFamily=Times New Roman;fillColor=#dae8fc;strokeColor=#36393D;verticalAlign=middle;" edge="1" parent="1" source="LijQFuNl5dc40pKVmMnD-10" target="LijQFuNl5dc40pKVmMnD-13">
          <mxGeometry width="50" height="50" relative="1" as="geometry">
            <mxPoint x="240" y="540" as="sourcePoint" />
            <mxPoint x="290" y="490" as="targetPoint" />
          </mxGeometry>
        </mxCell>
        <mxCell id="LijQFuNl5dc40pKVmMnD-16" value="7" style="ellipse;whiteSpace=wrap;html=1;aspect=fixed;fontSize=22;fontFamily=Times New Roman;fillColor=#dae8fc;strokeColor=#36393D;" vertex="1" parent="1">
          <mxGeometry x="90" y="520" width="80" height="80" as="geometry" />
        </mxCell>
        <mxCell id="LijQFuNl5dc40pKVmMnD-17" value="10" style="endArrow=classic;html=1;rounded=0;exitX=0;exitY=1;exitDx=0;exitDy=0;entryX=1;entryY=0.5;entryDx=0;entryDy=0;fontSize=22;fontFamily=Times New Roman;fillColor=#dae8fc;strokeColor=#36393D;" edge="1" parent="1" source="LijQFuNl5dc40pKVmMnD-13" target="LijQFuNl5dc40pKVmMnD-16">
          <mxGeometry width="50" height="50" relative="1" as="geometry">
            <mxPoint x="250" y="810" as="sourcePoint" />
            <mxPoint x="300" y="760" as="targetPoint" />
          </mxGeometry>
        </mxCell>
        <mxCell id="LijQFuNl5dc40pKVmMnD-18" value="8" style="ellipse;whiteSpace=wrap;html=1;aspect=fixed;fontSize=22;fontFamily=Times New Roman;fillColor=#dae8fc;strokeColor=#36393D;verticalAlign=middle;" vertex="1" parent="1">
          <mxGeometry x="290" y="570" width="80" height="80" as="geometry" />
        </mxCell>
        <mxCell id="LijQFuNl5dc40pKVmMnD-19" value="12" style="endArrow=classic;html=1;rounded=0;exitX=1;exitY=1;exitDx=0;exitDy=0;entryX=0;entryY=0.5;entryDx=0;entryDy=0;fontSize=22;fontFamily=Times New Roman;fillColor=#dae8fc;strokeColor=#36393D;" edge="1" parent="1" source="LijQFuNl5dc40pKVmMnD-16" target="LijQFuNl5dc40pKVmMnD-18">
          <mxGeometry width="50" height="50" relative="1" as="geometry">
            <mxPoint x="250" y="820" as="sourcePoint" />
            <mxPoint x="300" y="770" as="targetPoint" />
          </mxGeometry>
        </mxCell>
        <mxCell id="LijQFuNl5dc40pKVmMnD-20" value="16" style="endArrow=classic;html=1;rounded=0;exitX=0;exitY=0.5;exitDx=0;exitDy=0;entryX=1.013;entryY=0.588;entryDx=0;entryDy=0;entryPerimeter=0;fontSize=22;fontFamily=Times New Roman;fillColor=#dae8fc;strokeColor=#36393D;verticalAlign=middle;" edge="1" parent="1" source="LijQFuNl5dc40pKVmMnD-8" target="LijQFuNl5dc40pKVmMnD-18">
          <mxGeometry width="50" height="50" relative="1" as="geometry">
            <mxPoint x="480" y="820" as="sourcePoint" />
            <mxPoint x="530" y="770" as="targetPoint" />
          </mxGeometry>
        </mxCell>
        <mxCell id="LijQFuNl5dc40pKVmMnD-21" value="9" style="ellipse;whiteSpace=wrap;html=1;aspect=fixed;fontSize=22;fontFamily=Times New Roman;fillColor=#dae8fc;strokeColor=#36393D;" vertex="1" parent="1">
          <mxGeometry x="380" y="730" width="80" height="80" as="geometry" />
        </mxCell>
        <mxCell id="LijQFuNl5dc40pKVmMnD-22" value="9" style="endArrow=classic;html=1;rounded=0;exitX=1;exitY=1;exitDx=0;exitDy=0;fontSize=22;fontFamily=Times New Roman;fillColor=#dae8fc;strokeColor=#36393D;verticalAlign=middle;" edge="1" parent="1" source="LijQFuNl5dc40pKVmMnD-18" target="LijQFuNl5dc40pKVmMnD-21">
          <mxGeometry width="50" height="50" relative="1" as="geometry">
            <mxPoint x="340" y="880" as="sourcePoint" />
            <mxPoint x="390" y="830" as="targetPoint" />
          </mxGeometry>
        </mxCell>
      </root>
    </mxGraphModel>
  </diagram>
</mxfile>
